REM DIRINDEX 1\8,1\2\11,1\3\12,1\3\14,1\5\15,1\5\16,1\6\17,1\6\18,1\4\19,1\4\20,1\4\21,1\4\22,1\7\23,1\7\24,1\7\25,1\2\9\26,1\2\9\27,1\2\10\28,1\2\10\29,1\2\10\30,1\2\10\31,1\2\10\32,1\3\13\33,1\3\13\34,1\3\13\35
REM DIRNAME cjc123,folder01,folder02,folder03,folder04,folder05,folder06,folder07,folder08,folder09,folder10,folder11,folder12,folder13,folder14,folder15,folder16,folder17,folder18,folder19,folder20,folder21,folder22,folder23,folder24,folder25,folder26,folder27,folder28,folder29,folder30,folder31,folder32,folder33,folder34
TITLE ""
FILE "2-51 051_LISTENING_SECTION_Review.mp3" MP3
  TRACK 01 AUDIO
    TITLE "18:cjc123_5448"
    INDEX 01 00:00:00
  TRACK 02 AUDIO
    TITLE "0:"
    INDEX 01 00:02:43
  TRACK 03 AUDIO
    TITLE "18:cjc123_5449"
    INDEX 01 00:03:14
  TRACK 04 AUDIO
    TITLE "0:"
    INDEX 01 00:04:29
  TRACK 05 AUDIO
    TITLE "17:cjc123_5450"
    INDEX 01 00:04:48
  TRACK 06 AUDIO
    TITLE "0:"
    INDEX 01 00:05:44
  TRACK 07 AUDIO
    TITLE "18:cjc123_5451"
    INDEX 01 00:06:18
  TRACK 08 AUDIO
    TITLE "0:"
    INDEX 01 00:07:35
  TRACK 09 AUDIO
    TITLE "17:cjc123_5452"
    INDEX 01 00:07:43
  TRACK 10 AUDIO
    TITLE "0:"
    INDEX 01 00:08:52
  TRACK 11 AUDIO
    TITLE "18:cjc123_5453"
    INDEX 01 00:09:24
  TRACK 12 AUDIO
    TITLE "0:"
    INDEX 01 00:10:41
  TRACK 13 AUDIO
    TITLE "17:cjc123_5454"
    INDEX 01 00:10:45
  TRACK 14 AUDIO
    TITLE "0:"
    INDEX 01 00:11:39
  TRACK 15 AUDIO
    TITLE "18:cjc123_5455"
    INDEX 01 00:12:11
  TRACK 16 AUDIO
    TITLE "0:"
    INDEX 01 00:13:26
  TRACK 17 AUDIO
    TITLE "17:cjc123_5456"
    INDEX 01 00:13:35
  TRACK 18 AUDIO
    TITLE "0:"
    INDEX 01 00:14:43
  TRACK 19 AUDIO
    TITLE "18:cjc123_5457"
    INDEX 01 00:15:19
  TRACK 20 AUDIO
    TITLE "0:"
    INDEX 01 00:16:38
  TRACK 21 AUDIO
    TITLE "17:cjc123_5458"
    INDEX 01 00:16:55
  TRACK 22 AUDIO
    TITLE "0:"
    INDEX 01 00:17:70
  TRACK 23 AUDIO
    TITLE "18:cjc123_5459"
    INDEX 01 00:18:41
  TRACK 24 AUDIO
    TITLE "0:"
    INDEX 01 00:19:62
  TRACK 25 AUDIO
    TITLE "17:cjc123_5460"
    INDEX 01 00:19:69
  TRACK 26 AUDIO
    TITLE "0:"
    INDEX 01 00:20:67
  TRACK 27 AUDIO
    TITLE "18:cjc123_5461"
    INDEX 01 00:21:43
  TRACK 28 AUDIO
    TITLE "0:"
    INDEX 01 00:22:52
  TRACK 29 AUDIO
    TITLE "17:cjc123_5462"
    INDEX 01 00:22:66
  TRACK 30 AUDIO
    TITLE "0:"
    INDEX 01 00:23:73
  TRACK 31 AUDIO
    TITLE "18:cjc123_5463"
    INDEX 01 00:24:43
  TRACK 32 AUDIO
    TITLE "0:"
    INDEX 01 00:25:56
  TRACK 33 AUDIO
    TITLE "17:cjc123_5464"
    INDEX 01 00:25:66
  TRACK 34 AUDIO
    TITLE "0:"
    INDEX 01 00:26:64
  TRACK 35 AUDIO
    TITLE "18:cjc123_5465"
    INDEX 01 00:27:45
  TRACK 36 AUDIO
    TITLE "0:"
    INDEX 01 00:28:68
  TRACK 37 AUDIO
    TITLE "17:cjc123_5466"
    INDEX 01 00:29:07
  TRACK 38 AUDIO
    TITLE "0:"
    INDEX 01 00:30:38
  TRACK 39 AUDIO
    TITLE "18:cjc123_5467"
    INDEX 01 00:31:08
  TRACK 40 AUDIO
    TITLE "0:"
    INDEX 01 00:32:25
  TRACK 41 AUDIO
    TITLE "17:cjc123_5468"
    INDEX 01 00:32:33
  TRACK 42 AUDIO
    TITLE "0:"
    INDEX 01 00:33:46
  TRACK 43 AUDIO
    TITLE "18:cjc123_5469"
    INDEX 01 00:34:20
  TRACK 44 AUDIO
    TITLE "0:"
    INDEX 01 00:35:37
  TRACK 45 AUDIO
    TITLE "17:cjc123_5470"
    INDEX 01 00:35:57
  TRACK 46 AUDIO
    TITLE "0:"
    INDEX 01 00:36:52
  TRACK 47 AUDIO
    TITLE "18:cjc123_5471"
    INDEX 01 00:37:42
  TRACK 48 AUDIO
    TITLE "0:"
    INDEX 01 00:38:49
  TRACK 49 AUDIO
    TITLE "17:cjc123_5472"
    INDEX 01 00:38:65
  TRACK 50 AUDIO
    TITLE "0:"
    INDEX 01 00:39:70
  TRACK 51 AUDIO
    TITLE "18:cjc123_5473"
    INDEX 01 00:40:46
  TRACK 52 AUDIO
    TITLE "0:"
    INDEX 01 00:42:04
  TRACK 53 AUDIO
    TITLE "17:cjc123_5474"
    INDEX 01 00:42:14
  TRACK 54 AUDIO
    TITLE "0:"
    INDEX 01 00:43:23
  TRACK 55 AUDIO
    TITLE "18:cjc123_5475"
    INDEX 01 00:43:74
  TRACK 56 AUDIO
    TITLE "0:"
    INDEX 01 00:45:41
  TRACK 57 AUDIO
    TITLE "17:cjc123_5476"
    INDEX 01 00:45:47
  TRACK 58 AUDIO
    TITLE "0:"
    INDEX 01 00:46:47
  TRACK 59 AUDIO
    TITLE "18:cjc123_5477"
    INDEX 01 00:47:17
  TRACK 60 AUDIO
    TITLE "0:"
    INDEX 01 00:48:40
  TRACK 61 AUDIO
    TITLE "17:cjc123_5478"
    INDEX 01 00:48:59
  TRACK 62 AUDIO
    TITLE "0:"
    INDEX 01 00:49:61
  TRACK 63 AUDIO
    TITLE "18:cjc123_5479"
    INDEX 01 00:50:37
  TRACK 64 AUDIO
    TITLE "0:"
    INDEX 01 00:51:71
  TRACK 65 AUDIO
    TITLE "17:cjc123_5480"
    INDEX 01 00:52:06
  TRACK 66 AUDIO
    TITLE "0:"
    INDEX 01 00:53:19
  TRACK 67 AUDIO
    TITLE "18:cjc123_5481"
    INDEX 01 00:53:66
  TRACK 68 AUDIO
    TITLE "0:"
    INDEX 01 00:55:40
  TRACK 69 AUDIO
    TITLE "17:cjc123_5482"
    INDEX 01 00:55:51
  TRACK 70 AUDIO
    TITLE "0:"
    INDEX 01 00:57:01
  TRACK 71 AUDIO
    TITLE "18:cjc123_5483"
    INDEX 01 00:57:45
  TRACK 72 AUDIO
    TITLE "0:"
    INDEX 01 00:59:08
  TRACK 73 AUDIO
    TITLE "17:cjc123_5484"
    INDEX 01 00:59:16
  TRACK 74 AUDIO
    TITLE "0:"
    INDEX 01 01:00:19
  TRACK 75 AUDIO
    TITLE "18:cjc123_5485"
    INDEX 01 01:00:68
  TRACK 76 AUDIO
    TITLE "0:"
    INDEX 01 01:02:20
  TRACK 77 AUDIO
    TITLE "17:cjc123_5486"
    INDEX 01 01:02:46
  TRACK 78 AUDIO
    TITLE "0:"
    INDEX 01 01:03:49
  TRACK 79 AUDIO
    TITLE "18:cjc123_5487"
    INDEX 01 01:04:17
  TRACK 80 AUDIO
    TITLE "0:"
    INDEX 01 01:05:34
  TRACK 81 AUDIO
    TITLE "17:cjc123_5488"
    INDEX 01 01:05:48
  TRACK 82 AUDIO
    TITLE "0:"
    INDEX 01 01:06:43
  TRACK 83 AUDIO
    TITLE "18:cjc123_5489"
    INDEX 01 01:07:19
  TRACK 84 AUDIO
    TITLE "0:"
    INDEX 01 01:08:56
  TRACK 85 AUDIO
    TITLE "17:cjc123_5490"
    INDEX 01 01:08:68
  TRACK 86 AUDIO
    TITLE "0:"
    INDEX 01 01:10:04
